<svg width="16" height="17" viewBox="0 0 16 17" fill="none" xmlns="http://www.w3.org/2000/svg"><path d="M.48 5.443c-.337.444-.499.92-.478 1.411.02.54.255.963.447 1.223-.223.576-.31 1.482.437 2.186.548.516 1.477.747 2.764.683.906-.043 1.663-.217 1.694-.224h.003c.172-.032.355-.071.54-.114.014.228-.024.793-.43 2.066-.482 1.514-.454 2.673.09 3.448.571.814 1.483.878 1.752.878.258 0 .495-.11.664-.313.382-.458.337-1.305.29-1.696.453-1.258 1.727-4.344 2.804-5.2a.372.372 0 0 0 .055-.05c.317-.345.53-.718.675-1.045.203.113.434.177.682.177h2.1c.79 0 1.431-.665 1.431-1.479V1.617C16 .8 15.356.14 14.568.14h-2.1c-.306 0-.591.1-.826.27l-.808-.1A33.568 33.568 0 0 0 6.245.05C5.835.019 5.45 0 5.092 0c-.616 0-1.153.05-1.6.15C2.439.38 1.719.841 1.354 1.52a2.238 2.238 0 0 0-.234 1.362C.435 3.523.315 4.23.34 4.728c.013.288.075.533.14.715zm14.088-4.345c.279 0 .503.235.503.52v5.78a.512.512 0 0 1-.503.519h-2.1a.512.512 0 0 1-.502-.52V1.622c0-.288.227-.519.503-.519h2.1v-.004zM1.361 5.858a.49.49 0 0 0 .062-.579c0-.003-.14-.252-.158-.594-.024-.465.193-.878.647-1.23a.494.494 0 0 0 .158-.547c0-.004-.148-.473.093-.917.23-.427.744-.733 1.522-.903.623-.139 1.47-.164 2.509-.078h.048c2.213-.05 4.45.248 4.475.252h.003l.348.043c-.021.1-.031.206-.031.312v5.78c0 .154.024.303.065.442a3.006 3.006 0 0 1-.64 1.22c-1.546 1.265-3.057 5.534-3.122 5.72a.464.464 0 0 0-.02.237c.058.398.037.886-.045 1.031-.183-.003-.675-.057-.971-.48-.351-.5-.337-1.397.041-2.584.579-1.81.627-2.762.169-3.182a.732.732 0 0 0-.75-.139c-.21.05-.41.093-.6.125l-.044.01c-1.057.239-2.95.385-3.607-.234-.558-.526-.162-1.223-.117-1.298a.486.486 0 0 0-.083-.618C1.31 7.643.948 7.29.931 6.818c-.014-.316.13-.64.43-.96z" fill="#333"/></svg>