<svg width="16" height="17" viewBox="0 0 16 17" fill="none" xmlns="http://www.w3.org/2000/svg"><path d="M15.52 11.557c.337-.444.499-.92.478-1.411a2.21 2.21 0 0 0-.447-1.223c.223-.576.31-1.482-.437-2.186-.548-.516-1.477-.747-2.764-.683-.905.043-1.663.217-1.694.224h-.003c-.172.032-.355.071-.54.114-.014-.228.024-.793.43-2.066.482-1.514.454-2.673-.09-3.448C9.882.064 8.97 0 8.701 0a.853.853 0 0 0-.664.313c-.382.458-.337 1.305-.29 1.696-.453 1.258-1.727 4.344-2.804 5.2a.372.372 0 0 0-.055.05c-.317.345-.53.718-.675 1.045a1.385 1.385 0 0 0-.682-.177h-2.1C.642 8.127 0 8.792 0 9.606v5.777c0 .817.644 1.478 1.432 1.478h2.1c.306 0 .591-.1.826-.27l.808.1c.124.018 2.327.305 4.589.26.41.031.795.049 1.153.049.616 0 1.153-.05 1.6-.15 1.053-.23 1.773-.693 2.138-1.372.278-.519.278-1.034.234-1.361.685-.64.805-1.347.78-1.845a2.467 2.467 0 0 0-.14-.715zM1.432 15.902a.512.512 0 0 1-.503-.52v-5.78c0-.288.228-.519.503-.519h2.1c.278 0 .502.235.502.519v5.777c0 .288-.227.519-.503.519h-2.1v.004zm13.207-4.76a.49.49 0 0 0-.062.579c0 .003.14.252.158.594.024.465-.193.878-.647 1.23a.494.494 0 0 0-.158.547c0 .004.148.473-.093.917-.23.427-.744.732-1.522.903-.623.139-1.47.164-2.509.078h-.048c-2.213.05-4.45-.248-4.475-.252H5.28l-.348-.043c.021-.1.031-.206.031-.313v-5.78a1.55 1.55 0 0 0-.065-.44c.062-.239.234-.769.64-1.22 1.546-1.266 3.057-5.535 3.122-5.72a.464.464 0 0 0 .02-.238c-.058-.398-.037-.886.045-1.031.183.003.675.057.971.48.351.5.337 1.397-.041 2.584-.579 1.81-.627 2.762-.169 3.182.227.21.53.22.75.139.21-.05.41-.093.6-.125l.044-.01c1.057-.239 2.95-.385 3.607.234.558.526.162 1.223.117 1.298-.127.199-.09.458.083.618.003.004.365.356.382.829.014.316-.13.64-.43.96z" fill="#333"/></svg>