<svg width="19" height="20" viewBox="0 0 19 20" fill="none" xmlns="http://www.w3.org/2000/svg"><path d="M14.702 12.969c-1.117 0-2.102.57-2.72 1.436l-5.347-2.838a3.58 3.58 0 0 0 .15-.981 3.6 3.6 0 0 0-.25-1.314l5.596-3.49c.623.758 1.538 1.25 2.571 1.25 1.871 0 3.393-1.578 3.393-3.516C18.095 1.577 16.573 0 14.702 0c-1.87 0-3.393 1.577-3.393 3.516 0 .446.09.87.237 1.264l-5.613 3.5c-.622-.736-1.525-1.21-2.54-1.21C1.522 7.07 0 8.647 0 10.586s1.522 3.516 3.393 3.516c1.136 0 2.137-.587 2.753-1.477l5.33 2.828a3.58 3.58 0 0 0-.167 1.031c0 1.939 1.522 3.516 3.393 3.516 1.871 0 3.393-1.577 3.393-3.516 0-1.938-1.522-3.515-3.393-3.515z" fill="#CCC"/></svg>